<?xml version="1.0" standalone="no"?>
<!DOCTYPE svg PUBLIC "-//W3C//DTD SVG 20010904//EN"
 "http://www.w3.org/TR/2001/REC-SVG-20010904/DTD/svg10.dtd">
<svg version="1.0" xmlns="http://www.w3.org/2000/svg"
 width="1050.000000pt" height="1050.000000pt" viewBox="0 0 1050.000000 1050.000000"
 preserveAspectRatio="xMidYMid meet">
<metadata>
Created by potrace 1.14, written by Peter Selinger 2001-2017
</metadata>
<g transform="translate(0.000000,1050.000000) scale(0.100000,-0.100000)"
fill="#000000" stroke="none">
<path d="M650 9997 l0 -503 2605 0 2606 1 -2 152 c0 84 2 156 5 162 4 5 2 12
-3 15 -6 4 -6 18 -1 36 5 16 5 32 2 34 -4 2 -5 111 -2 241 3 130 3 239 1 241
-3 2 -3 31 -2 64 l2 60 -2605 0 -2606 0 0 -503z"/>
<path d="M3147 9204 c-1 -1 -42 -5 -92 -9 -130 -9 -174 -14 -245 -28 -14 -3
-43 -8 -65 -12 -107 -19 -362 -95 -442 -131 -17 -8 -35 -14 -39 -14 -8 0 -134
-58 -184 -85 -14 -7 -54 -28 -90 -47 -80 -43 -184 -108 -188 -120 -2 -4 -8 -8
-14 -8 -9 0 -69 -42 -96 -67 -7 -7 -16 -13 -20 -13 -4 0 -23 -14 -42 -31 -19
-17 -55 -48 -80 -68 -60 -49 -215 -204 -270 -271 -25 -30 -53 -62 -62 -72 -10
-10 -18 -22 -18 -27 0 -5 -7 -14 -15 -21 -19 -16 -99 -129 -108 -153 -3 -9
-10 -17 -16 -17 -5 0 -11 -8 -14 -17 -4 -10 -20 -40 -37 -68 -17 -27 -40 -70
-53 -95 -12 -25 -25 -46 -29 -48 -5 -2 -8 -12 -8 -23 0 -10 -4 -19 -10 -19 -5
0 -10 -6 -10 -14 0 -8 -7 -27 -15 -43 -31 -59 -97 -226 -100 -253 0 -3 -3 -9
-7 -15 -19 -32 -94 -351 -103 -446 -3 -26 -9 -76 -14 -110 -14 -98 -11 -440 5
-564 17 -128 22 -160 24 -160 1 0 3 -11 4 -25 4 -33 55 -240 66 -265 5 -11 14
-38 20 -60 6 -22 14 -47 17 -55 3 -8 7 -19 8 -25 14 -58 171 -383 216 -447 11
-14 19 -31 19 -36 0 -6 3 -12 8 -14 4 -1 23 -28 42 -58 19 -30 37 -57 40 -60
3 -3 24 -30 46 -60 23 -30 51 -66 63 -80 12 -14 41 -47 64 -74 100 -118 375
-366 404 -366 5 0 15 -9 23 -20 8 -11 20 -20 27 -20 7 0 13 -4 13 -9 0 -5 8
-11 18 -15 9 -3 51 -28 92 -55 60 -39 288 -162 310 -167 3 0 27 -10 53 -22 27
-12 60 -25 73 -28 13 -3 27 -10 30 -15 3 -5 16 -9 29 -9 13 0 27 -4 30 -10 3
-5 17 -10 30 -10 13 0 27 -5 30 -10 4 -6 11 -8 16 -5 5 4 9 2 9 -4 0 -6 7 -8
15 -5 8 4 21 2 28 -4 10 -8 64 -21 94 -23 5 -1 15 -5 24 -10 9 -5 32 -11 50
-13 19 -3 45 -8 59 -11 14 -4 41 -9 60 -11 19 -3 49 -7 65 -10 131 -21 270
-26 796 -27 l516 -2 -2 30 c-1 17 3 38 8 49 7 13 6 16 -3 11 -9 -6 -9 -2 -1
14 7 11 8 21 4 21 -4 0 -7 44 -5 98 3 118 3 131 -2 157 -2 11 1 30 5 43 5 12
5 22 1 22 -4 0 -6 44 -4 98 1 53 2 102 2 107 0 6 -1 83 -2 173 -2 103 1 162 7
162 7 0 6 3 0 8 -12 8 -13 62 -1 80 4 7 3 12 -1 12 -5 0 -8 28 -7 63 l2 62
-512 1 c-567 1 -621 4 -756 40 -30 8 -62 16 -71 19 -45 10 -191 65 -199 74 -3
3 -26 16 -51 28 -98 46 -254 160 -346 255 -193 197 -320 436 -379 713 -9 45
-28 222 -26 250 0 6 3 56 6 112 2 56 7 107 11 113 3 5 7 24 9 42 4 41 20 103
49 188 11 36 22 67 22 70 4 17 70 151 101 203 44 73 113 166 163 221 99 107
235 217 341 275 73 40 146 75 153 73 4 -1 7 3 7 9 0 5 4 8 8 5 5 -3 20 1 35 9
15 8 27 11 27 8 0 -3 7 0 15 7 8 7 15 9 15 5 0 -4 6 -3 13 3 7 6 24 13 37 16
14 3 36 8 50 11 14 3 41 8 60 11 19 3 38 8 41 10 11 7 165 18 244 17 85 0 212
-13 275 -27 14 -3 35 -8 48 -10 40 -8 207 -67 220 -78 6 -6 12 -7 12 -3 0 5 9
0 20 -10 11 -10 20 -15 20 -11 0 17 193 -105 285 -180 l54 -44 -3 27 c-1 16 1
36 6 46 5 9 5 17 1 17 -11 0 -9 183 2 200 6 9 4 11 -4 5 -10 -6 -11 -3 -2 14
7 11 8 21 4 21 -4 0 -7 44 -5 98 3 118 3 131 -2 157 -2 11 1 30 5 43 5 12 5
22 1 22 -4 0 -6 44 -4 98 1 53 2 102 2 107 0 6 -1 83 -2 173 -2 103 1 162 7
162 7 0 7 3 0 8 -12 9 -14 184 -2 193 5 4 -3 9 -17 13 -14 3 -38 11 -53 18
-15 6 -30 12 -33 13 -3 0 -32 9 -65 19 -33 10 -68 20 -78 21 -9 2 -22 7 -27
10 -6 4 -22 8 -36 11 -14 3 -54 11 -88 19 -33 7 -81 17 -106 20 -25 3 -52 8
-60 10 -45 13 -220 26 -378 29 -62 1 -114 1 -115 0z"/>
<path d="M4653 5579 c1 -1773 6 -3242 10 -3264 4 -22 10 -56 13 -75 9 -52 12
-71 18 -110 9 -63 47 -213 76 -306 96 -302 229 -557 429 -819 87 -115 322
-353 432 -438 41 -31 80 -62 86 -67 29 -24 225 -148 270 -171 26 -13 50 -26
53 -29 5 -5 133 -67 165 -80 11 -4 41 -17 66 -28 103 -46 355 -122 455 -138
21 -3 42 -8 46 -10 4 -3 31 -7 60 -10 29 -3 56 -8 60 -10 35 -22 718 -25 718
-4 0 3 12 7 28 8 28 2 31 3 157 28 161 32 448 126 539 177 12 6 23 12 26 12
12 1 197 100 219 116 13 11 27 19 32 19 8 0 198 127 209 139 3 3 25 22 50 41
25 19 51 39 58 45 7 5 57 52 110 103 53 50 100 92 104 92 5 0 8 3 8 8 0 4 27
36 60 72 33 36 62 73 65 83 4 9 10 17 14 17 5 0 26 25 46 55 21 30 42 55 47
55 5 0 6 4 3 10 -3 5 -1 10 4 10 6 0 11 6 11 14 0 8 4 16 8 18 6 2 63 91 129
203 46 77 171 357 177 397 1 7 4 18 8 23 18 29 83 287 103 408 25 150 29 214
29 422 1 186 -5 301 -19 367 -3 16 -7 40 -9 55 -10 70 -18 119 -23 133 -3 8
-7 25 -8 36 -2 12 -13 54 -25 94 -12 39 -22 80 -23 91 -1 10 -4 19 -8 19 -4 0
-10 16 -13 35 -4 19 -18 59 -31 90 -14 31 -25 62 -25 70 0 8 -4 15 -8 15 -4 0
-8 10 -9 21 -1 12 -10 30 -19 40 -9 11 -14 19 -10 19 7 0 -87 184 -127 247
-15 24 -27 47 -27 52 0 5 -3 11 -7 13 -10 4 -53 65 -53 73 0 6 -48 74 -60 85
-3 3 -19 24 -35 46 -86 118 -281 317 -420 429 -106 85 -248 185 -263 185 -6 0
-12 4 -14 8 -4 11 -207 121 -288 156 -36 16 -83 36 -105 46 -57 25 -194 71
-216 73 -11 1 -19 4 -19 7 0 4 -6 7 -12 8 -7 0 -70 14 -140 31 -71 16 -149 32
-175 36 -27 4 -61 9 -78 11 -99 14 -236 17 -725 18 l-545 1 -2 -602 c-1 -452
2 -603 10 -604 7 0 255 -2 552 -4 297 -2 552 -6 567 -8 14 -3 41 -8 60 -13 18
-4 42 -8 53 -10 18 -2 53 -10 65 -14 3 -1 10 -3 15 -4 6 -1 17 -5 25 -8 64
-25 116 -42 123 -40 4 1 7 -3 7 -10 0 -6 3 -8 7 -5 7 8 196 -90 201 -104 2 -5
9 -9 14 -9 30 0 206 -151 304 -262 32 -36 119 -158 144 -203 52 -92 111 -222
115 -255 0 -3 3 -9 7 -15 8 -13 46 -169 54 -225 9 -59 9 -353 1 -410 -4 -25
-10 -58 -14 -75 -4 -16 -7 -32 -8 -35 -3 -18 -28 -109 -35 -125 -5 -11 -12
-31 -15 -45 -4 -14 -20 -51 -36 -83 -16 -31 -25 -57 -21 -57 4 0 2 -4 -4 -8
-5 -4 -27 -37 -47 -73 -71 -129 -209 -288 -337 -388 -36 -28 -70 -55 -76 -60
-6 -5 -20 -12 -32 -15 -12 -4 -22 -11 -22 -16 0 -23 -309 -153 -417 -175 -16
-3 -39 -8 -53 -11 -14 -3 -41 -7 -60 -9 -19 -2 -35 -5 -35 -5 0 -4 -85 -9
-160 -9 -175 -1 -298 19 -465 76 -90 30 -142 53 -152 67 -4 6 -8 8 -8 4 0 -9
-109 50 -128 69 -7 7 -18 13 -23 13 -5 0 -22 11 -37 25 -15 14 -31 25 -35 25
-17 0 -189 166 -248 240 -51 63 -109 148 -109 159 0 5 -6 16 -13 23 -17 17
-84 157 -103 216 -8 26 -18 54 -21 62 -3 8 -7 20 -9 27 -1 6 -7 27 -12 45 -6
18 -14 56 -18 83 -4 28 -9 57 -10 65 -4 18 -15 148 -15 170 2 142 -1 395 -5
401 -2 4 0 10 5 13 5 3 5 21 1 41 -4 19 -5 37 -1 39 3 2 4 237 1 521 -3 284
-2 519 1 521 4 2 3 20 -1 39 -4 19 -5 37 -1 39 3 2 4 93 1 201 -3 108 -2 199
1 201 4 2 3 20 -1 39 -4 19 -4 37 0 40 4 3 4 21 0 40 -4 19 -4 37 0 40 4 3 4
21 0 40 -4 19 -5 37 -1 39 3 2 4 93 1 201 -3 108 -2 199 1 201 4 2 3 20 -1 39
-4 19 -4 37 0 40 4 3 4 21 0 40 -4 19 -4 37 0 40 4 3 4 21 0 40 -4 19 -5 37
-1 39 3 2 4 93 1 201 -3 108 -2 199 1 201 4 2 3 20 -1 39 -4 19 -4 37 0 40 4
3 4 21 0 40 -4 19 -4 37 0 40 4 3 4 20 0 39 -4 19 -6 37 -3 39 6 6 9 427 3
427 -3 0 -5 60 -6 133 0 145 -6 204 -30 347 -3 19 -8 47 -9 62 -2 15 -9 46
-16 70 -6 24 -13 52 -14 63 -8 52 -79 279 -110 350 -64 149 -125 274 -137 281
-4 3 -8 12 -8 20 0 8 -5 20 -10 27 -6 7 -33 48 -60 92 -50 80 -58 92 -105 151
-14 18 -25 35 -25 38 0 3 -8 14 -17 24 -10 11 -32 36 -50 58 -78 97 -194 217
-289 299 -38 33 -71 62 -74 65 -3 3 -26 21 -52 40 -27 18 -48 37 -48 42 0 4
-6 8 -13 8 -7 0 -28 13 -47 30 -19 16 -39 29 -44 30 -5 0 -18 8 -28 17 -18 16
-18 -73 -15 -3208z"/>
</g>
</svg>
