<?xml version="1.0" encoding="utf-8"?>
<!-- Generator: Adobe Illustrator 24.0.2, SVG Export Plug-In . SVG Version: 6.00 Build 0)  -->
<svg version="1.1" id="Layer_1" xmlns="http://www.w3.org/2000/svg" xmlns:xlink="http://www.w3.org/1999/xlink" x="0px" y="0px"
	 viewBox="0 0 1440 600" style="enable-background:new 0 0 1440 600;" xml:space="preserve">
<style type="text/css">
	.st0{fill:url(#SVGID_1_);}
</style>
<linearGradient id="SVGID_1_" gradientUnits="userSpaceOnUse" x1="796.6772" y1="-13.0246" x2="706.6772" y2="354.9754">
	<stop  offset="0" style="stop-color:#00C6FB"/>
	<stop  offset="1" style="stop-color:#005BEA"/>
</linearGradient>
<path class="st0" d="M0,300.5l40-37.6c40-37.6,120-112.7,200-100.2c80,13.4,160,112,240,162.9c80,50,160,50,240,37.6
	c80-13.4,160-36.9,240-12.7c80,25.1,160,100.2,240,150.3c80,50.9,160,74.4,200,87.8l40,12.4V0h-40c-40,0-120,0-200,0s-160,0-240,0
	S800,0,720,0S560,0,480,0S320,0,240,0S80,0,40,0H0V300.5z"/>
</svg>
